
<svg xmlns="http://www.w3.org/2000/svg" xmlns:xlink="http://www.w3.org/1999/xlink" version="1.1"  width="1355" height="907">
<defs id="dmw_defs" >
<svg id="fk_sym" viewBox="0 0 48.665 48.665" style="enable-background:new 0 0 48.665 48.665;" >
<g>
<path d="M40.332,31.592c-2.377,0-4.515,1-6.033,2.598l-17.737-8.686c0.061-0.406,0.103-0.82,0.103-1.246    c0-0.414-0.04-0.818-0.098-1.215l17.711-8.589c1.519,1.609,3.666,2.619,6.054,2.619c4.603,0,8.333-3.731,8.333-8.333    c0-4.603-3.73-8.333-8.333-8.333s-8.333,3.73-8.333,8.333c0,0.414,0.04,0.817,0.098,1.215l-17.709,8.589    c-1.519-1.609-3.666-2.619-6.054-2.619C3.73,15.925,0,19.656,0,24.258c0,4.603,3.73,8.333,8.333,8.333    c2.377,0,4.515-1,6.033-2.596l17.736,8.685c-0.062,0.406-0.104,0.82-0.104,1.245c0,4.604,3.73,8.333,8.333,8.333    s8.333-3.729,8.333-8.333C48.665,35.322,44.935,31.592,40.332,31.592z" fill="#13bf3b"/>
</g>
</svg>
<svg id="pk_sym" viewBox="0 0 480.509 480.509" style="enable-background:new 0 0 480.509 480.509;" >
<g>
<path d="M418.119,331.046c4.094,4.374,7.766,8.186,10.996,11.416c3.237,3.238,6.714,6.376,10.427,9.422   c3.71,3.042,6.427,4.568,8.135,4.568c3.241,0,9.517-4.661,18.843-13.99c9.328-9.321,13.989-15.604,13.989-18.842   c0-1.523-2.714-5.421-8.138-11.704c-5.421-6.276-12.364-13.702-20.838-22.271c-8.473-8.565-16.703-16.744-24.694-24.55   c-8.001-7.81-15.8-15.373-23.417-22.703c-7.611-7.327-11.992-11.56-13.135-12.703c-1.902-1.902-4.093-2.853-6.563-2.853   c-3.237,0-9.521,4.661-18.843,13.988c-9.328,9.322-13.989,15.605-13.989,18.843c0,1.711,1.522,4.421,4.568,8.138   c3.046,3.71,6.188,7.187,9.421,10.424c3.23,3.23,7.047,6.899,11.42,10.992c4.377,4.093,6.848,6.423,7.423,6.995l-27.408,27.404   L254.954,222.268c24.94-33.498,37.408-68.236,37.408-104.211c0-31.024-9.761-56.293-29.263-75.801   c-19.512-19.511-44.778-29.265-75.805-29.265c-30.454,0-60.244,9.042-89.363,27.119c-29.121,18.083-52.727,41.686-70.808,70.808   C9.042,140.038,0,169.828,0,200.28c0,31.029,9.753,56.286,29.265,75.803c19.511,19.517,44.777,29.27,75.801,29.27   c35.976,0,70.71-12.467,104.212-37.407l191.574,191.579c5.332,5.328,11.796,7.994,19.417,7.994c7.991,0,15.704-3.72,23.12-11.14   c7.426-7.426,11.143-15.129,11.143-23.127c0-7.617-2.666-14.092-7.994-19.417l-62.811-62.811l27.405-27.404   C411.699,324.195,414.033,326.666,418.119,331.046z M221.556,161.458c-10.656,10.657-23.601,15.987-38.828,15.987   c-7.996,0-15.896-1.812-23.7-5.43c3.617,7.808,5.426,15.706,5.426,23.7c0,15.229-5.327,28.171-15.987,38.828   c-10.66,10.655-23.606,15.986-38.831,15.986c-15.227,0-28.168-5.325-38.828-15.986c-10.657-10.657-15.987-23.599-15.987-38.828   c0-15.227,5.327-28.171,15.987-38.828C81.464,146.23,94.409,140.9,109.636,140.9c7.992,0,15.893,1.809,23.695,5.424   c-3.616-7.804-5.424-15.706-5.424-23.699c0-15.227,5.327-28.171,15.987-38.828c10.66-10.657,23.604-15.987,38.831-15.987   c15.227,0,28.171,5.327,38.828,15.987c10.657,10.66,15.987,23.601,15.987,38.828C237.539,137.852,232.209,150.797,221.556,161.458z   " fill="#ff8345"/>
</g>
</svg>
<svg id="uk_sym" viewBox="0 0 490 490" style="enable-background:new 0 0 490 490;" >
<g>
	<polygon points="236.99,11.41 0,246.348 236.99,478.678 236.99,350.609 129.864,245 236.99,139.391  " fill="#0064fb"/>
<polygon points="253.01,478.59 490,243.651 253.01,11.322 253.01,139.391 360.136,245 253.01,350.609  " fill="#0064fb"/>
</g>
</svg>
<svg id="link_sym" viewBox="0 0 1000 900" style="enable-background:new 0 0 1000 900;" >
<g>
<path fill="black" d="M660.224 422.656c6.976 16.192-0.512 35.008-16.768 42.048-16.128 6.976-34.944-0.448-41.984-16.768-8.448-19.776-20.736-37.696-36.224-53.248-64.64-64.64-177.344-64.64-241.92 0l-145.216 145.28c-66.688 66.688-66.688 175.232 0 241.984 66.688 66.688 175.104 66.752 241.92 0l92.8-92.864c12.48-12.48 32.768-12.48 45.248 0s12.48 32.768 0 45.248l-92.8 92.864c-91.648 91.648-240.832 91.52-332.416 0-91.712-91.648-91.712-240.832 0-332.48l145.216-145.28c44.352-44.416 103.424-68.864 166.272-68.864s121.792 24.448 166.208 68.864c21.248 21.312 38.016 45.952 49.664 73.216zM891.136 401.344l-145.216 145.216c-88.768 88.832-243.712 88.832-332.416 0-21.312-21.312-38.080-45.952-49.728-73.216-7.040-16.256 0.448-35.072 16.704-42.048 16.064-6.784 35.008 0.512 41.984 16.768 8.512 19.776 20.8 37.696 36.288 53.248 64.64 64.64 177.344 64.64 241.92 0l145.216-145.216c66.688-66.688 66.688-175.232 0-241.984-66.752-66.624-175.168-66.688-241.92 0l-92.8 92.864c-12.48 12.48-32.768 12.48-45.248 0s-12.48-32.768 0-45.248l92.8-92.864c45.824-45.824 105.984-68.736 166.208-68.736s120.448 22.912 166.272 68.736c91.584 91.648 91.584 240.768-0.064 332.48z" />
</g>
</svg>
<clipPath clipPathUnits="userSpaceOnUse" id="clipPath11_0_">
<rect x="0" y="0" width="390" height="164" />
</clipPath>
<clipPath clipPathUnits="userSpaceOnUse" id="clipPath7_0_">
<rect x="0" y="0" width="257" height="108" />
</clipPath>
<clipPath clipPathUnits="userSpaceOnUse" id="clipPath4_0_">
<rect x="0" y="0" width="259" height="74" />
</clipPath>
<clipPath clipPathUnits="userSpaceOnUse" id="clipPath5_0_">
<rect x="0" y="0" width="208" height="88" />
</clipPath>
<clipPath clipPathUnits="userSpaceOnUse" id="clipPath1_0_">
<rect x="0" y="0" width="230" height="102" />
</clipPath>
<clipPath clipPathUnits="userSpaceOnUse" id="clipPath12_0_">
<rect x="0" y="0" width="240" height="130" />
</clipPath>
<clipPath clipPathUnits="userSpaceOnUse" id="clipPath13_0_">
<rect x="0" y="0" width="245" height="164" />
</clipPath>
<clipPath clipPathUnits="userSpaceOnUse" id="clipPath9_0_">
<rect x="0" y="0" width="228" height="88" />
</clipPath>
<clipPath clipPathUnits="userSpaceOnUse" id="clipPath8_0_">
<rect x="0" y="0" width="246" height="108" />
</clipPath>
<clipPath clipPathUnits="userSpaceOnUse" id="clipPath10_0_">
<rect x="0" y="0" width="239" height="116" />
</clipPath>
<clipPath clipPathUnits="userSpaceOnUse" id="clipPath3_0_">
<rect x="0" y="0" width="251" height="111" />
</clipPath>
<clipPath clipPathUnits="userSpaceOnUse" id="clipPath6_0_">
<rect x="0" y="0" width="230" height="88" />
</clipPath>
<clipPath clipPathUnits="userSpaceOnUse" id="clipPath2_0_">
<rect x="0" y="0" width="250" height="108" />
</clipPath>
<clipPath clipPathUnits="userSpaceOnUse" id="clipPath14_0_">
<rect x="0" y="0" width="241" height="88" />
</clipPath>
</defs>
<g stroke-linecap="butt" >
<path stroke="rgb(0,0,0)" fill="none" stroke-opacity="1.0"  stroke-width="1" d="M709 165 L413 165" />
<polygon stroke="rgb(0,0,0)" stroke-dasharray="none" points="709 165 703 168 703 162" fill="rgb(0,0,0)" stroke-width="1" stroke-opacity="1.0"  />
<path stroke-dasharray="none" d="M413.0 159.0 L425.0 165.0 L413.0 171.0 M425.5999994277954 159.0 L425.5999994277954 171.0" fill="white" stroke-width="1" stroke-opacity="1.0" stroke="rgb(0,0,0)" />
</g>
<g stroke-linecap="butt" >
<path stroke="rgb(0,0,0)" fill="none" stroke-opacity="1.0"  stroke-width="1" d="M1104 140 L413 140" />
<polygon stroke="rgb(0,0,0)" stroke-dasharray="none" points="1104 140 1098 143 1098 137" fill="rgb(0,0,0)" stroke-width="1" stroke-opacity="1.0"  />
<path stroke-dasharray="none" d="M413.0 134.0 L425.0 140.0 L413.0 146.0 M425.5999994277954 134.0 L425.5999994277954 146.0" fill="white" stroke-width="1" stroke-opacity="1.0" stroke="rgb(0,0,0)" />
</g>
<g stroke-linecap="butt" >
<path stroke="rgb(0,0,0)" fill="none" stroke-opacity="1.0"  stroke-width="1" d="M262 278 L335 278" />
<polygon stroke="rgb(0,0,0)" stroke-dasharray="none" points="262 278 268 275 268 281" fill="rgb(0,0,0)" stroke-width="1" stroke-opacity="1.0"  />
<path stroke-dasharray="none" d="M335.0 284.0 L323.0 278.0 L335.0 272.0 M322.4000005722046 284.0 L322.4000005722046 272.0" fill="white" stroke-width="1" stroke-opacity="1.0" stroke="rgb(0,0,0)" />
</g>
<g stroke-linecap="butt" >
<path stroke="rgb(0,0,0)" fill="none" stroke-opacity="1.0"  stroke-width="1" d="M493 54 L413 54" />
<polygon stroke="rgb(0,0,0)" stroke-dasharray="none" points="493 54 487 57 487 51" fill="rgb(0,0,0)" stroke-width="1" stroke-opacity="1.0"  />
<path stroke-dasharray="none" d="M413.0 48.0 L425.0 54.0 L413.0 60.0 M425.5999994277954 48.0 L425.5999994277954 60.0" fill="white" stroke-width="1" stroke-opacity="1.0" stroke="rgb(0,0,0)" />
</g>
<g stroke-linecap="butt" >
<path stroke="rgb(0,0,0)" fill="none" stroke-opacity="1.0"  stroke-width="1" d="M842 484 L913 484" />
<polygon stroke="rgb(0,0,0)" stroke-dasharray="none" points="842 484 848 481 848 487" fill="rgb(0,0,0)" stroke-width="1" stroke-opacity="1.0"  />
<path stroke-dasharray="none" d="M913.0 490.0 L901.0 484.0 L913.0 478.0 M900.4000005722046 490.0 L900.4000005722046 478.0" fill="white" stroke-width="1" stroke-opacity="1.0" stroke="rgb(0,0,0)" />
</g>
<g stroke-linecap="butt" >
<path stroke="rgb(0,0,0)" fill="none" stroke-opacity="1.0"  stroke-width="1" d="M709 229 L592 229" />
<polygon stroke="rgb(0,0,0)" stroke-dasharray="none" points="709 229 703 232 703 226" fill="rgb(0,0,0)" stroke-width="1" stroke-opacity="1.0"  />
<path stroke-dasharray="none" d="M592.0 223.0 L604.0 229.0 L592.0 235.0 M604.5999994277954 223.0 L604.5999994277954 235.0" fill="white" stroke-width="1" stroke-opacity="1.0" stroke="rgb(0,0,0)" />
</g>
<g stroke-linecap="butt" >
<path stroke="rgb(0,0,0)" fill="none" stroke-opacity="1.0"  stroke-width="1" d="M1036 384 L1036 435" />
<polygon stroke="rgb(0,0,0)" stroke-dasharray="none" points="1036 384 1039 390 1033 390" fill="rgb(0,0,0)" stroke-width="1" stroke-opacity="1.0"  />
<path stroke-dasharray="none" d="M1030.0 435.0 L1036.0 423.0 L1042.0 435.0 M1030.0 422.4000005722046 L1042.0 422.4000005722046" fill="white" stroke-width="1" stroke-opacity="1.0" stroke="rgb(0,0,0)" />
</g>
<g stroke-linecap="butt" >
<path stroke="rgb(0,0,0)" fill="none" stroke-opacity="1.0"  stroke-width="1" d="M317 631 L317 593" />
<polygon stroke="rgb(0,0,0)" stroke-dasharray="none" points="317 631 314 625 320 625" fill="rgb(0,0,0)" stroke-width="1" stroke-opacity="1.0"  />
<path stroke-dasharray="none" d="M323.0 593.0 L317.0 605.0 L311.0 593.0 M323.0 605.5999994277954 L311.0 605.5999994277954" fill="white" stroke-width="1" stroke-opacity="1.0" stroke="rgb(0,0,0)" />
</g>
<g stroke-linecap="butt" >
<path stroke="rgb(0,0,0)" fill="none" stroke-opacity="1.0"  stroke-width="1" d="M995 633 L247 813" />
<polygon stroke="rgb(0,0,0)" stroke-dasharray="none" points="995 633 990 636 990 632" fill="rgb(0,0,0)" stroke-width="1" stroke-opacity="1.0"  />
<path stroke-dasharray="none" d="M246.0 808.0 L257.0 811.0 L248.0 818.0 M256.5 805.9000000953674 L258.5 815.9000000953674" fill="white" stroke-width="1" stroke-opacity="1.0" stroke="rgb(0,0,0)" />
</g>
<g stroke-linecap="butt" >
<path stroke="rgb(0,0,0)" fill="none" stroke-opacity="1.0"  stroke-width="1" d="M785 244 L785 296" />
<polygon stroke="rgb(0,0,0)" stroke-dasharray="none" points="785 244 788 250 782 250" fill="rgb(0,0,0)" stroke-width="1" stroke-opacity="1.0"  />
<path stroke-dasharray="none" d="M779.0 296.0 L785.0 284.0 L791.0 296.0 M779.0 283.4000005722046 L791.0 283.4000005722046" fill="white" stroke-width="1" stroke-opacity="1.0" stroke="rgb(0,0,0)" />
</g>
<g stroke-linecap="butt" >
<path stroke="rgb(0,0,0)" fill="none" stroke-opacity="1.0"  stroke-width="1" d="M1179 565 L1179 217" />
<polygon stroke="rgb(0,0,0)" stroke-dasharray="none" points="1179 565 1176 559 1182 559" fill="rgb(0,0,0)" stroke-width="1" stroke-opacity="1.0"  />
<path stroke-dasharray="none" d="M1185.0 217.0 L1179.0 229.0 L1173.0 217.0 M1185.0 229.5999994277954 L1173.0 229.5999994277954" fill="white" stroke-width="1" stroke-opacity="1.0" stroke="rgb(0,0,0)" />
</g>
<g stroke-linecap="butt" >
<path stroke="rgb(0,0,0)" fill="none" stroke-opacity="1.0"  stroke-width="1" d="M225 719 L225 777" />
<polygon stroke="rgb(0,0,0)" stroke-dasharray="none" points="225 719 228 725 222 725" fill="rgb(0,0,0)" stroke-width="1" stroke-opacity="1.0"  />
<path stroke-dasharray="none" d="M219.0 777.0 L225.0 765.0 L231.0 777.0 M219.0 764.4000005722046 L231.0 764.4000005722046" fill="white" stroke-width="1" stroke-opacity="1.0" stroke="rgb(0,0,0)" />
</g>
<g stroke-linecap="butt" >
<path stroke="rgb(0,0,0)" fill="none" stroke-opacity="1.0"  stroke-width="1" d="M916 340 L862 340" />
<polygon stroke="rgb(0,0,0)" stroke-dasharray="none" points="916 340 910 343 910 337" fill="rgb(0,0,0)" stroke-width="1" stroke-opacity="1.0"  />
<path stroke-dasharray="none" d="M862.0 334.0 L874.0 340.0 L862.0 346.0 M874.5999994277954 334.0 L874.5999994277954 346.0" fill="white" stroke-width="1" stroke-opacity="1.0" stroke="rgb(0,0,0)" />
</g>
<g stroke-linecap="butt" >
<path stroke="rgb(0,0,0)" fill="none" stroke-opacity="1.0"  stroke-width="1" d="M142 234 L142 174" />
<polygon stroke="rgb(0,0,0)" stroke-dasharray="none" points="142 234 139 228 145 228" fill="rgb(0,0,0)" stroke-width="1" stroke-opacity="1.0"  />
<path stroke-dasharray="none" d="M148.0 174.0 L142.0 186.0 L136.0 174.0 M148.0 186.5999994277954 L136.0 186.5999994277954" fill="white" stroke-width="1" stroke-opacity="1.0" stroke="rgb(0,0,0)" />
</g>
<g stroke-linecap="butt" >
<path stroke="rgb(0,0,0)" fill="none" stroke-opacity="1.0"  stroke-width="1" d="M224 350 L224 429" />
<polygon stroke="rgb(0,0,0)" stroke-dasharray="none" points="224 350 227 356 221 356" fill="rgb(0,0,0)" stroke-width="1" stroke-opacity="1.0"  />
<path stroke-dasharray="none" d="M218.0 429.0 L224.0 417.0 L230.0 429.0 M218.0 416.4000005722046 L230.0 416.4000005722046" fill="white" stroke-width="1" stroke-opacity="1.0" stroke="rgb(0,0,0)" />
</g>
<g stroke-linecap="butt" >
<path stroke="rgb(0,0,0)" fill="none" stroke-opacity="1.0"  stroke-width="1" d="M995 579 L431 579" />
<polygon stroke="rgb(0,0,0)" stroke-dasharray="none" points="995 579 989 582 989 576" fill="rgb(0,0,0)" stroke-width="1" stroke-opacity="1.0"  />
<path stroke-dasharray="none" d="M431.0 573.0 L443.0 579.0 L431.0 585.0 M443.5999994277954 573.0 L443.5999994277954 585.0" fill="white" stroke-width="1" stroke-opacity="1.0" stroke="rgb(0,0,0)" />
</g>
<g stroke-linecap="butt" >
<path stroke="rgb(0,0,0)" fill="none" stroke-opacity="1.0"  stroke-width="1" d="M135 350 L135 777" />
<polygon stroke="rgb(0,0,0)" stroke-dasharray="none" points="135 350 138 356 132 356" fill="rgb(0,0,0)" stroke-width="1" stroke-opacity="1.0"  />
<path stroke-dasharray="none" d="M129.0 777.0 L135.0 765.0 L141.0 777.0 M129.0 764.4000005722046 L141.0 764.4000005722046" fill="white" stroke-width="1" stroke-opacity="1.0" stroke="rgb(0,0,0)" />
</g>
<g  fill="rgb(255,255,180)" stroke="rgb(0,0,255)" fill-opacity="1.0" stroke-opacity="1.0" clip-path="url(#clipPath1_0_)" transform="translate(612,432)" >
<rect x="0" y="0" width="229" height="101" />
<text id="79298058-A22A40D6FC55" x="95" y="14" fill="rgb(0,0,255)" font-weight="bold"  fill-opacity="1.0" font-size="10" stroke="none">
address
</text>
<line x1="0" y1="18" x2="228" y2="18" fill="none" stroke="rgb(0,0,255)"/>
<text x="16" y="32" fill="rgb(255,0,0)" fill-opacity="1.0" font-size="10" stroke="none">
*
</text>
<text x="2" y="32" fill="rgb(0,0,255)" fill-opacity="1.0" font-size="10" stroke="none">
P
</text>
<text x="26" y="32" fill="rgb(0,0,0)" fill-opacity="1.0" font-size="10" stroke="none">
address_id
</text>
<text x="104" y="32" fill="rgb(0,128,0)" fill-opacity="1.0" font-size="10" stroke="none">
INTEGER
</text>
<text x="16" y="46" fill="rgb(255,0,0)" fill-opacity="1.0" font-size="10" stroke="none">
*
</text>
<text x="26" y="46" fill="rgb(0,0,0)" fill-opacity="1.0" font-size="10" stroke="none">
street_no
</text>
<text x="104" y="46" fill="rgb(0,128,0)" fill-opacity="1.0" font-size="10" stroke="none">
INTEGER
</text>
<text x="16" y="60" fill="rgb(255,0,0)" fill-opacity="1.0" font-size="10" stroke="none">
*
</text>
<text x="26" y="60" fill="rgb(0,0,0)" fill-opacity="1.0" font-size="10" stroke="none">
street_name
</text>
<text x="104" y="60" fill="rgb(0,128,0)" fill-opacity="1.0" font-size="10" stroke="none">
VARCHAR2 (100 CHAR)
</text>
<text x="16" y="74" fill="rgb(255,0,0)" fill-opacity="1.0" font-size="10" stroke="none">
*
</text>
<text x="26" y="74" fill="rgb(0,0,0)" fill-opacity="1.0" font-size="10" stroke="none">
state_name
</text>
<text x="104" y="74" fill="rgb(0,128,0)" fill-opacity="1.0" font-size="10" stroke="none">
VARCHAR2 (100 CHAR)
</text>
<line x1="0" y1="80" x2="228" y2="80" fill="none" stroke="rgb(0,0,255)"/>
<use xlink:href="#pk_sym" x="4" y="87" width="8" height="8" fill-opacity="1.0"/>
<text x="16" y="94" fill="rgb(0,0,0)" fill-opacity="1.0" font-size="10" stroke="none">
address_pk (address_id)
</text>
</g>
<g  fill="rgb(255,255,180)" stroke="rgb(0,0,255)" fill-opacity="1.0" stroke-opacity="1.0" clip-path="url(#clipPath2_0_)" transform="translate(913,435)" >
<rect x="0" y="0" width="249" height="107" />
<text id="E781C727-BD7005DF2C60" x="83" y="14" fill="rgb(0,0,255)" font-weight="bold"  fill-opacity="1.0" font-size="10" stroke="none">
Address-Teacher
</text>
<line x1="0" y1="18" x2="248" y2="18" fill="none" stroke="rgb(0,0,255)"/>
<text x="16" y="32" fill="rgb(255,0,0)" fill-opacity="1.0" font-size="10" stroke="none">
*
</text>
<text x="2" y="32" fill="rgb(0,0,255)" fill-opacity="1.0" font-size="10" stroke="none">
PF
</text>
<text x="26" y="32" fill="rgb(0,0,0)" fill-opacity="1.0" font-size="10" stroke="none">
address_id
</text>
<text x="96" y="32" fill="rgb(0,128,0)" fill-opacity="1.0" font-size="10" stroke="none">
INTEGER
</text>
<text x="16" y="46" fill="rgb(255,0,0)" fill-opacity="1.0" font-size="10" stroke="none">
*
</text>
<text x="2" y="46" fill="rgb(0,0,255)" fill-opacity="1.0" font-size="10" stroke="none">
PF
</text>
<text x="26" y="46" fill="rgb(0,0,0)" fill-opacity="1.0" font-size="10" stroke="none">
teacher_id
</text>
<text x="96" y="46" fill="rgb(0,128,0)" fill-opacity="1.0" font-size="10" stroke="none">
INTEGER
</text>
<line x1="0" y1="52" x2="248" y2="52" fill="none" stroke="rgb(0,0,255)"/>
<use xlink:href="#pk_sym" x="4" y="59" width="8" height="8" fill-opacity="1.0"/>
<text x="16" y="66" fill="rgb(0,0,0)" fill-opacity="1.0" font-size="10" stroke="none">
Address-Teacher_PK (address_id, teacher_id)
</text>
<line x1="0" y1="72" x2="248" y2="72" fill="none" stroke="rgb(0,0,255)"/>
<use xlink:href="#fk_sym" x="4" y="79" width="8" height="8" fill-opacity="1.0"/><a xlink:href="#79298058-A22A40D6FC55" >
<text x="16" y="86" fill="rgb(0,0,0)" fill-opacity="1.0" font-size="10" stroke="none">
Address-Teacher_Address__FK (address_id)
</text></a>
<use xlink:href="#fk_sym" x="4" y="93" width="8" height="8" fill-opacity="1.0"/><a xlink:href="#F70791A7-858C609C6653" >
<text x="16" y="100" fill="rgb(0,0,0)" fill-opacity="1.0" font-size="10" stroke="none">
Address-Teacher_Teacher_FK (teacher_id)
</text></a>
</g>
<g  fill="rgb(255,255,180)" stroke="rgb(0,0,255)" fill-opacity="1.0" stroke-opacity="1.0" clip-path="url(#clipPath3_0_)" transform="translate(1104,106)" >
<rect x="0" y="0" width="250" height="110" />
<text id="BD4E7AD0-90522F49E8A6" x="97" y="14" fill="rgb(0,0,255)" font-weight="bold"  fill-opacity="1.0" font-size="10" stroke="none">
assignment
</text>
<line x1="0" y1="18" x2="249" y2="18" fill="none" stroke="rgb(0,0,255)"/>
<text x="16" y="32" fill="rgb(255,0,0)" fill-opacity="1.0" font-size="10" stroke="none">
*
</text>
<text x="2" y="32" fill="rgb(0,0,255)" fill-opacity="1.0" font-size="10" stroke="none">
P
</text>
<text x="26" y="32" fill="rgb(0,0,0)" fill-opacity="1.0" font-size="10" stroke="none">
assignment_id
</text>
<text x="125" y="32" fill="rgb(0,128,0)" fill-opacity="1.0" font-size="10" stroke="none">
INTEGER
</text>
<text x="16" y="46" fill="rgb(255,0,0)" fill-opacity="1.0" font-size="10" stroke="none">
*
</text>
<text x="26" y="46" fill="rgb(0,0,0)" fill-opacity="1.0" font-size="10" stroke="none">
assignment_type
</text>
<text x="125" y="46" fill="rgb(0,128,0)" fill-opacity="1.0" font-size="10" stroke="none">
VARCHAR2 (100 CHAR)
</text>
<text x="16" y="60" fill="rgb(255,0,0)" fill-opacity="1.0" font-size="10" stroke="none">
*
</text>
<text x="2" y="60" fill="rgb(0,0,0)" fill-opacity="1.0" font-size="10" stroke="none">
F
</text>
<text x="26" y="60" fill="rgb(0,0,0)" fill-opacity="1.0" font-size="10" stroke="none">
department_id
</text>
<text x="125" y="60" fill="rgb(0,128,0)" fill-opacity="1.0" font-size="10" stroke="none">
INTEGER
</text>
<line x1="0" y1="66" x2="249" y2="66" fill="none" stroke="rgb(0,0,255)"/>
<use xlink:href="#pk_sym" x="4" y="73" width="8" height="8" fill-opacity="1.0"/>
<text x="16" y="80" fill="rgb(0,0,0)" fill-opacity="1.0" font-size="10" stroke="none">
assignment_pk (assignment_id)
</text>
<line x1="0" y1="86" x2="249" y2="86" fill="none" stroke="rgb(0,0,255)"/>
<use xlink:href="#fk_sym" x="4" y="93" width="8" height="8" fill-opacity="1.0"/><a xlink:href="#5EBE0017-571AE27E0D25" >
<text x="16" y="100" fill="rgb(0,0,0)" fill-opacity="1.0" font-size="10" stroke="none">
assignment_department_fk (department_id)
</text></a>
</g>
<g  fill="rgb(255,255,180)" stroke="rgb(0,0,255)" fill-opacity="1.0" stroke-opacity="1.0" clip-path="url(#clipPath4_0_)" transform="translate(995,565)" >
<rect x="0" y="0" width="258" height="73" />
<text id="5EBE0017-571AE27E0D25" x="102" y="14" fill="rgb(0,0,255)" font-weight="bold"  fill-opacity="1.0" font-size="10" stroke="none">
department
</text>
<line x1="0" y1="18" x2="257" y2="18" fill="none" stroke="rgb(0,0,255)"/>
<text x="16" y="32" fill="rgb(255,0,0)" fill-opacity="1.0" font-size="10" stroke="none">
*
</text>
<text x="2" y="32" fill="rgb(0,0,255)" fill-opacity="1.0" font-size="10" stroke="none">
P
</text>
<text x="26" y="32" fill="rgb(0,0,0)" fill-opacity="1.0" font-size="10" stroke="none">
department_id
</text>
<text x="133" y="32" fill="rgb(0,128,0)" fill-opacity="1.0" font-size="10" stroke="none">
INTEGER
</text>
<text x="16" y="46" fill="rgb(255,0,0)" fill-opacity="1.0" font-size="10" stroke="none">
*
</text>
<text x="26" y="46" fill="rgb(0,0,0)" fill-opacity="1.0" font-size="10" stroke="none">
department_name
</text>
<text x="133" y="46" fill="rgb(0,128,0)" fill-opacity="1.0" font-size="10" stroke="none">
VARCHAR2 (199 CHAR)
</text>
<line x1="0" y1="52" x2="257" y2="52" fill="none" stroke="rgb(0,0,255)"/>
<use xlink:href="#pk_sym" x="4" y="59" width="8" height="8" fill-opacity="1.0"/>
<text x="16" y="66" fill="rgb(0,0,0)" fill-opacity="1.0" font-size="10" stroke="none">
department_pk (department_id)
</text>
</g>
<g  fill="rgb(255,255,180)" stroke="rgb(0,0,255)" fill-opacity="1.0" stroke-opacity="1.0" clip-path="url(#clipPath5_0_)" transform="translate(493,10)" >
<rect x="0" y="0" width="207" height="87" />
<text id="6E3415DA-4582888A9C8D" x="90" y="14" fill="rgb(0,0,255)" font-weight="bold"  fill-opacity="1.0" font-size="10" stroke="none">
grade
</text>
<line x1="0" y1="18" x2="206" y2="18" fill="none" stroke="rgb(0,0,255)"/>
<text x="16" y="32" fill="rgb(255,0,0)" fill-opacity="1.0" font-size="10" stroke="none">
*
</text>
<text x="2" y="32" fill="rgb(0,0,255)" fill-opacity="1.0" font-size="10" stroke="none">
P
</text>
<text x="26" y="32" fill="rgb(0,0,0)" fill-opacity="1.0" font-size="10" stroke="none">
grade_id
</text>
<text x="88" y="32" fill="rgb(0,128,0)" fill-opacity="1.0" font-size="10" stroke="none">
INTEGER
</text>
<text x="16" y="46" fill="rgb(255,0,0)" fill-opacity="1.0" font-size="10" stroke="none">

</text>
<text x="26" y="46" fill="rgb(0,0,0)" fill-opacity="1.0" font-size="10" stroke="none">
grade
</text>
<text x="88" y="46" fill="rgb(0,128,0)" fill-opacity="1.0" font-size="10" stroke="none">
VARCHAR2 (2 CHAR)
</text>
<text x="16" y="60" fill="rgb(255,0,0)" fill-opacity="1.0" font-size="10" stroke="none">

</text>
<text x="26" y="60" fill="rgb(0,0,0)" fill-opacity="1.0" font-size="10" stroke="none">
status
</text>
<text x="88" y="60" fill="rgb(0,128,0)" fill-opacity="1.0" font-size="10" stroke="none">
VARCHAR2 (11 CHAR)
</text>
<line x1="0" y1="66" x2="206" y2="66" fill="none" stroke="rgb(0,0,255)"/>
<use xlink:href="#pk_sym" x="4" y="73" width="8" height="8" fill-opacity="1.0"/>
<text x="16" y="80" fill="rgb(0,0,0)" fill-opacity="1.0" font-size="10" stroke="none">
grade_pk (grade_id)
</text>
</g>
<g  fill="rgb(255,255,180)" stroke="rgb(0,0,255)" fill-opacity="1.0" stroke-opacity="1.0" clip-path="url(#clipPath6_0_)" transform="translate(709,156)" >
<rect x="0" y="0" width="229" height="87" />
<text id="CF835787-3004A709D821" x="97" y="14" fill="rgb(0,0,255)" font-weight="bold"  fill-opacity="1.0" font-size="10" stroke="none">
module
</text>
<line x1="0" y1="18" x2="228" y2="18" fill="none" stroke="rgb(0,0,255)"/>
<text x="16" y="32" fill="rgb(255,0,0)" fill-opacity="1.0" font-size="10" stroke="none">
*
</text>
<text x="2" y="32" fill="rgb(0,0,255)" fill-opacity="1.0" font-size="10" stroke="none">
P
</text>
<text x="26" y="32" fill="rgb(0,0,0)" fill-opacity="1.0" font-size="10" stroke="none">
module_code
</text>
<text x="104" y="32" fill="rgb(0,128,0)" fill-opacity="1.0" font-size="10" stroke="none">
VARCHAR2 (20 CHAR)
</text>
<text x="16" y="46" fill="rgb(255,0,0)" fill-opacity="1.0" font-size="10" stroke="none">
*
</text>
<text x="26" y="46" fill="rgb(0,0,0)" fill-opacity="1.0" font-size="10" stroke="none">
module_name
</text>
<text x="104" y="46" fill="rgb(0,128,0)" fill-opacity="1.0" font-size="10" stroke="none">
VARCHAR2 (100 CHAR)
</text>
<text x="16" y="60" fill="rgb(255,0,0)" fill-opacity="1.0" font-size="10" stroke="none">
*
</text>
<text x="26" y="60" fill="rgb(0,0,0)" fill-opacity="1.0" font-size="10" stroke="none">
credit_hours
</text>
<text x="104" y="60" fill="rgb(0,128,0)" fill-opacity="1.0" font-size="10" stroke="none">
INTEGER
</text>
<line x1="0" y1="66" x2="228" y2="66" fill="none" stroke="rgb(0,0,255)"/>
<use xlink:href="#pk_sym" x="4" y="73" width="8" height="8" fill-opacity="1.0"/>
<text x="16" y="80" fill="rgb(0,0,0)" fill-opacity="1.0" font-size="10" stroke="none">
module_pk (module_code)
</text>
</g>
<g  fill="rgb(255,255,180)" stroke="rgb(0,0,255)" fill-opacity="1.0" stroke-opacity="1.0" clip-path="url(#clipPath7_0_)" transform="translate(335,214)" >
<rect x="0" y="0" width="256" height="107" />
<text id="5128245F-9C791EC7D9E3" x="89" y="14" fill="rgb(0,0,255)" font-weight="bold"  fill-opacity="1.0" font-size="10" stroke="none">
module_student
</text>
<line x1="0" y1="18" x2="255" y2="18" fill="none" stroke="rgb(0,0,255)"/>
<text x="16" y="32" fill="rgb(255,0,0)" fill-opacity="1.0" font-size="10" stroke="none">
*
</text>
<text x="2" y="32" fill="rgb(0,0,255)" fill-opacity="1.0" font-size="10" stroke="none">
PF
</text>
<text x="26" y="32" fill="rgb(0,0,0)" fill-opacity="1.0" font-size="10" stroke="none">
student_id
</text>
<text x="112" y="32" fill="rgb(0,128,0)" fill-opacity="1.0" font-size="10" stroke="none">
INTEGER
</text>
<text x="16" y="46" fill="rgb(255,0,0)" fill-opacity="1.0" font-size="10" stroke="none">
*
</text>
<text x="2" y="46" fill="rgb(0,0,255)" fill-opacity="1.0" font-size="10" stroke="none">
PF
</text>
<text x="26" y="46" fill="rgb(0,0,0)" fill-opacity="1.0" font-size="10" stroke="none">
module_code
</text>
<text x="112" y="46" fill="rgb(0,128,0)" fill-opacity="1.0" font-size="10" stroke="none">
VARCHAR2 (20 CHAR)
</text>
<line x1="0" y1="52" x2="255" y2="52" fill="none" stroke="rgb(0,0,255)"/>
<use xlink:href="#pk_sym" x="4" y="59" width="8" height="8" fill-opacity="1.0"/>
<text x="16" y="66" fill="rgb(0,0,0)" fill-opacity="1.0" font-size="10" stroke="none">
module_student_pk (student_id, module_code)
</text>
<line x1="0" y1="72" x2="255" y2="72" fill="none" stroke="rgb(0,0,255)"/>
<use xlink:href="#fk_sym" x="4" y="79" width="8" height="8" fill-opacity="1.0"/><a xlink:href="#CF835787-3004A709D821" >
<text x="16" y="86" fill="rgb(0,0,0)" fill-opacity="1.0" font-size="10" stroke="none">
module_student_module_fk (module_code)
</text></a>
<use xlink:href="#fk_sym" x="4" y="93" width="8" height="8" fill-opacity="1.0"/><a xlink:href="#BB722A92-524BE3E0A117" >
<text x="16" y="100" fill="rgb(0,0,0)" fill-opacity="1.0" font-size="10" stroke="none">
module_student_student_fk (student_id)
</text></a>
</g>
<g  fill="rgb(255,255,180)" stroke="rgb(0,0,255)" fill-opacity="1.0" stroke-opacity="1.0" clip-path="url(#clipPath8_0_)" transform="translate(616,296)" >
<rect x="0" y="0" width="245" height="107" />
<text id="BA7ACD93-0C8E7B604231" x="83" y="14" fill="rgb(0,0,255)" font-weight="bold"  fill-opacity="1.0" font-size="10" stroke="none">
module_teacher
</text>
<line x1="0" y1="18" x2="244" y2="18" fill="none" stroke="rgb(0,0,255)"/>
<text x="16" y="32" fill="rgb(255,0,0)" fill-opacity="1.0" font-size="10" stroke="none">
*
</text>
<text x="2" y="32" fill="rgb(0,0,255)" fill-opacity="1.0" font-size="10" stroke="none">
PF
</text>
<text x="26" y="32" fill="rgb(0,0,0)" fill-opacity="1.0" font-size="10" stroke="none">
module_id
</text>
<text x="97" y="32" fill="rgb(0,128,0)" fill-opacity="1.0" font-size="10" stroke="none">
VARCHAR2 (20 CHAR)
</text>
<text x="16" y="46" fill="rgb(255,0,0)" fill-opacity="1.0" font-size="10" stroke="none">
*
</text>
<text x="2" y="46" fill="rgb(0,0,255)" fill-opacity="1.0" font-size="10" stroke="none">
PF
</text>
<text x="26" y="46" fill="rgb(0,0,0)" fill-opacity="1.0" font-size="10" stroke="none">
teacher_id
</text>
<text x="97" y="46" fill="rgb(0,128,0)" fill-opacity="1.0" font-size="10" stroke="none">
INTEGER
</text>
<line x1="0" y1="52" x2="244" y2="52" fill="none" stroke="rgb(0,0,255)"/>
<use xlink:href="#pk_sym" x="4" y="59" width="8" height="8" fill-opacity="1.0"/>
<text x="16" y="66" fill="rgb(0,0,0)" fill-opacity="1.0" font-size="10" stroke="none">
module_teacher_pk (module_id, teacher_id)
</text>
<line x1="0" y1="72" x2="244" y2="72" fill="none" stroke="rgb(0,0,255)"/>
<use xlink:href="#fk_sym" x="4" y="79" width="8" height="8" fill-opacity="1.0"/><a xlink:href="#CF835787-3004A709D821" >
<text x="16" y="86" fill="rgb(0,0,0)" fill-opacity="1.0" font-size="10" stroke="none">
module_teacher_module_fk (module_id)
</text></a>
<use xlink:href="#fk_sym" x="4" y="93" width="8" height="8" fill-opacity="1.0"/><a xlink:href="#F70791A7-858C609C6653" >
<text x="16" y="100" fill="rgb(0,0,0)" fill-opacity="1.0" font-size="10" stroke="none">
module_teacher_teacher_fk (teacher_id)
</text></a>
</g>
<g  fill="rgb(255,255,180)" stroke="rgb(0,0,255)" fill-opacity="1.0" stroke-opacity="1.0" clip-path="url(#clipPath9_0_)" transform="translate(204,631)" >
<rect x="0" y="0" width="227" height="87" />
<text id="AE3B4812-17CAE741ECA1" x="91" y="14" fill="rgb(0,0,255)" font-weight="bold"  fill-opacity="1.0" font-size="10" stroke="none">
semester
</text>
<line x1="0" y1="18" x2="226" y2="18" fill="none" stroke="rgb(0,0,255)"/>
<text x="16" y="32" fill="rgb(255,0,0)" fill-opacity="1.0" font-size="10" stroke="none">
*
</text>
<text x="2" y="32" fill="rgb(0,0,255)" fill-opacity="1.0" font-size="10" stroke="none">
P
</text>
<text x="26" y="32" fill="rgb(0,0,0)" fill-opacity="1.0" font-size="10" stroke="none">
semester_id
</text>
<text x="108" y="32" fill="rgb(0,128,0)" fill-opacity="1.0" font-size="10" stroke="none">
INTEGER
</text>
<text x="16" y="46" fill="rgb(255,0,0)" fill-opacity="1.0" font-size="10" stroke="none">

</text>
<text x="26" y="46" fill="rgb(0,0,0)" fill-opacity="1.0" font-size="10" stroke="none">
semester_fee
</text>
<text x="108" y="46" fill="rgb(0,128,0)" fill-opacity="1.0" font-size="10" stroke="none">
NUMBER
</text>
<text x="16" y="60" fill="rgb(255,0,0)" fill-opacity="1.0" font-size="10" stroke="none">

</text>
<text x="26" y="60" fill="rgb(0,0,0)" fill-opacity="1.0" font-size="10" stroke="none">
semester
</text>
<text x="108" y="60" fill="rgb(0,128,0)" fill-opacity="1.0" font-size="10" stroke="none">
VARCHAR2 (20 CHAR)
</text>
<line x1="0" y1="66" x2="226" y2="66" fill="none" stroke="rgb(0,0,255)"/>
<use xlink:href="#pk_sym" x="4" y="73" width="8" height="8" fill-opacity="1.0"/>
<text x="16" y="80" fill="rgb(0,0,0)" fill-opacity="1.0" font-size="10" stroke="none">
semester_pk (semester_id)
</text>
</g>
<g  fill="rgb(255,255,180)" stroke="rgb(0,0,255)" fill-opacity="1.0" stroke-opacity="1.0" clip-path="url(#clipPath10_0_)" transform="translate(23,234)" >
<rect x="0" y="0" width="238" height="115" />
<text id="BB722A92-524BE3E0A117" x="101" y="14" fill="rgb(0,0,255)" font-weight="bold"  fill-opacity="1.0" font-size="10" stroke="none">
student
</text>
<line x1="0" y1="18" x2="237" y2="18" fill="none" stroke="rgb(0,0,255)"/>
<text x="16" y="32" fill="rgb(255,0,0)" fill-opacity="1.0" font-size="10" stroke="none">
*
</text>
<text x="2" y="32" fill="rgb(0,0,255)" fill-opacity="1.0" font-size="10" stroke="none">
P
</text>
<text x="26" y="32" fill="rgb(0,0,0)" fill-opacity="1.0" font-size="10" stroke="none">
student_id
</text>
<text x="113" y="32" fill="rgb(0,128,0)" fill-opacity="1.0" font-size="10" stroke="none">
INTEGER
</text>
<text x="16" y="46" fill="rgb(255,0,0)" fill-opacity="1.0" font-size="10" stroke="none">
*
</text>
<text x="26" y="46" fill="rgb(0,0,0)" fill-opacity="1.0" font-size="10" stroke="none">
student_name
</text>
<text x="113" y="46" fill="rgb(0,128,0)" fill-opacity="1.0" font-size="10" stroke="none">
VARCHAR2 (100 CHAR)
</text>
<text x="16" y="60" fill="rgb(255,0,0)" fill-opacity="1.0" font-size="10" stroke="none">
*
</text>
<text x="26" y="60" fill="rgb(0,0,0)" fill-opacity="1.0" font-size="10" stroke="none">
street_no
</text>
<text x="113" y="60" fill="rgb(0,128,0)" fill-opacity="1.0" font-size="10" stroke="none">
VARCHAR2 (100 CHAR)
</text>
<text x="16" y="74" fill="rgb(255,0,0)" fill-opacity="1.0" font-size="10" stroke="none">
*
</text>
<text x="26" y="74" fill="rgb(0,0,0)" fill-opacity="1.0" font-size="10" stroke="none">
street_name
</text>
<text x="113" y="74" fill="rgb(0,128,0)" fill-opacity="1.0" font-size="10" stroke="none">
VARCHAR2 (100 CHAR)
</text>
<text x="16" y="88" fill="rgb(255,0,0)" fill-opacity="1.0" font-size="10" stroke="none">
*
</text>
<text x="26" y="88" fill="rgb(0,0,0)" fill-opacity="1.0" font-size="10" stroke="none">
state_name
</text>
<text x="113" y="88" fill="rgb(0,128,0)" fill-opacity="1.0" font-size="10" stroke="none">
VARCHAR2 (100 CHAR)
</text>
<line x1="0" y1="94" x2="237" y2="94" fill="none" stroke="rgb(0,0,255)"/>
<use xlink:href="#pk_sym" x="4" y="101" width="8" height="8" fill-opacity="1.0"/>
<text x="16" y="108" fill="rgb(0,0,0)" fill-opacity="1.0" font-size="10" stroke="none">
student_pk (student_id)
</text>
</g>
<g  fill="rgb(255,255,180)" stroke="rgb(0,0,255)" fill-opacity="1.0" stroke-opacity="1.0" clip-path="url(#clipPath11_0_)" transform="translate(23,10)" >
<rect x="0" y="0" width="389" height="163" />
<text id="27F2605D-061FB3973406" x="145" y="14" fill="rgb(0,0,255)" font-weight="bold"  fill-opacity="1.0" font-size="10" stroke="none">
student_assignment
</text>
<line x1="0" y1="18" x2="388" y2="18" fill="none" stroke="rgb(0,0,255)"/>
<text x="16" y="32" fill="rgb(255,0,0)" fill-opacity="1.0" font-size="10" stroke="none">
*
</text>
<text x="2" y="32" fill="rgb(0,0,255)" fill-opacity="1.0" font-size="10" stroke="none">
PF
</text>
<text x="26" y="32" fill="rgb(0,0,0)" fill-opacity="1.0" font-size="10" stroke="none">
assignment_id
</text>
<text x="114" y="32" fill="rgb(0,128,0)" fill-opacity="1.0" font-size="10" stroke="none">
INTEGER
</text>
<text x="16" y="46" fill="rgb(255,0,0)" fill-opacity="1.0" font-size="10" stroke="none">
*
</text>
<text x="2" y="46" fill="rgb(0,0,255)" fill-opacity="1.0" font-size="10" stroke="none">
PF
</text>
<text x="26" y="46" fill="rgb(0,0,0)" fill-opacity="1.0" font-size="10" stroke="none">
student_id
</text>
<text x="114" y="46" fill="rgb(0,128,0)" fill-opacity="1.0" font-size="10" stroke="none">
INTEGER
</text>
<text x="16" y="60" fill="rgb(255,0,0)" fill-opacity="1.0" font-size="10" stroke="none">
*
</text>
<text x="2" y="60" fill="rgb(0,0,255)" fill-opacity="1.0" font-size="10" stroke="none">
PF
</text>
<text x="26" y="60" fill="rgb(0,0,0)" fill-opacity="1.0" font-size="10" stroke="none">
module_code
</text>
<text x="114" y="60" fill="rgb(0,128,0)" fill-opacity="1.0" font-size="10" stroke="none">
VARCHAR2 (20 CHAR)
</text>
<text x="16" y="74" fill="rgb(255,0,0)" fill-opacity="1.0" font-size="10" stroke="none">
*
</text>
<text x="2" y="74" fill="rgb(0,0,0)" fill-opacity="1.0" font-size="10" stroke="none">
F
</text>
<text x="26" y="74" fill="rgb(0,0,0)" fill-opacity="1.0" font-size="10" stroke="none">
grade_id
</text>
<text x="114" y="74" fill="rgb(0,128,0)" fill-opacity="1.0" font-size="10" stroke="none">
INTEGER
</text>
<line x1="0" y1="80" x2="388" y2="80" fill="none" stroke="rgb(0,0,255)"/>
<use xlink:href="#pk_sym" x="4" y="87" width="8" height="8" fill-opacity="1.0"/>
<text x="16" y="94" fill="rgb(0,0,0)" fill-opacity="1.0" font-size="10" stroke="none">
student_assignment_module_pk (assignment_id, student_id, module_code)
</text>
<line x1="0" y1="100" x2="388" y2="100" fill="none" stroke="rgb(0,0,255)"/>
<use xlink:href="#fk_sym" x="4" y="107" width="8" height="8" fill-opacity="1.0"/><a xlink:href="#BD4E7AD0-90522F49E8A6" >
<text x="16" y="114" fill="rgb(0,0,0)" fill-opacity="1.0" font-size="10" stroke="none">
sa_assignment_fk (assignment_id)
</text></a>
<use xlink:href="#fk_sym" x="4" y="121" width="8" height="8" fill-opacity="1.0"/><a xlink:href="#6E3415DA-4582888A9C8D" >
<text x="16" y="128" fill="rgb(0,0,0)" fill-opacity="1.0" font-size="10" stroke="none">
sa_grade_fk (grade_id)
</text></a>
<use xlink:href="#fk_sym" x="4" y="135" width="8" height="8" fill-opacity="1.0"/><a xlink:href="#CF835787-3004A709D821" >
<text x="16" y="142" fill="rgb(0,0,0)" fill-opacity="1.0" font-size="10" stroke="none">
sa_module_fk (module_code)
</text></a>
<use xlink:href="#fk_sym" x="4" y="149" width="8" height="8" fill-opacity="1.0"/><a xlink:href="#BB722A92-524BE3E0A117" >
<text x="16" y="156" fill="rgb(0,0,0)" fill-opacity="1.0" font-size="10" stroke="none">
sa_student_fk (student_id)
</text></a>
</g>
<g  fill="rgb(255,255,180)" stroke="rgb(0,0,255)" fill-opacity="1.0" stroke-opacity="1.0" clip-path="url(#clipPath12_0_)" transform="translate(7,777)" >
<rect x="0" y="0" width="239" height="129" />
<text id="8B23112D-5DC35DC925AA" x="72" y="14" fill="rgb(0,0,255)" font-weight="bold"  fill-opacity="1.0" font-size="10" stroke="none">
student_attendance
</text>
<line x1="0" y1="18" x2="238" y2="18" fill="none" stroke="rgb(0,0,255)"/>
<text x="16" y="32" fill="rgb(255,0,0)" fill-opacity="1.0" font-size="10" stroke="none">
*
</text>
<text x="2" y="32" fill="rgb(0,0,0)" fill-opacity="1.0" font-size="10" stroke="none">
F
</text>
<text x="26" y="32" fill="rgb(0,0,0)" fill-opacity="1.0" font-size="10" stroke="none">
student_id
</text>
<text x="160" y="32" fill="rgb(0,128,0)" fill-opacity="1.0" font-size="10" stroke="none">
INTEGER
</text>
<text x="16" y="46" fill="rgb(255,0,0)" fill-opacity="1.0" font-size="10" stroke="none">
*
</text>
<text x="2" y="46" fill="rgb(0,0,0)" fill-opacity="1.0" font-size="10" stroke="none">
F
</text>
<text x="26" y="46" fill="rgb(0,0,0)" fill-opacity="1.0" font-size="10" stroke="none">
semester_id
</text>
<text x="160" y="46" fill="rgb(0,128,0)" fill-opacity="1.0" font-size="10" stroke="none">
INTEGER
</text>
<text x="16" y="60" fill="rgb(255,0,0)" fill-opacity="1.0" font-size="10" stroke="none">

</text>
<text x="26" y="60" fill="rgb(0,0,0)" fill-opacity="1.0" font-size="10" stroke="none">
attendance_percentage
</text>
<text x="160" y="60" fill="rgb(0,128,0)" fill-opacity="1.0" font-size="10" stroke="none">
INTEGER
</text>
<text x="16" y="74" fill="rgb(255,0,0)" fill-opacity="1.0" font-size="10" stroke="none">
*
</text>
<text x="2" y="74" fill="rgb(0,0,0)" fill-opacity="1.0" font-size="10" stroke="none">
F
</text>
<text x="26" y="74" fill="rgb(0,0,0)" fill-opacity="1.0" font-size="10" stroke="none">
department_id
</text>
<text x="160" y="74" fill="rgb(0,128,0)" fill-opacity="1.0" font-size="10" stroke="none">
INTEGER
</text>
<line x1="0" y1="80" x2="238" y2="80" fill="none" stroke="rgb(0,0,255)"/>
<use xlink:href="#fk_sym" x="4" y="87" width="8" height="8" fill-opacity="1.0"/><a xlink:href="#5EBE0017-571AE27E0D25" >
<text x="16" y="94" fill="rgb(0,0,0)" fill-opacity="1.0" font-size="10" stroke="none">
attendance_department_fk (department_id)
</text></a>
<use xlink:href="#fk_sym" x="4" y="101" width="8" height="8" fill-opacity="1.0"/><a xlink:href="#AE3B4812-17CAE741ECA1" >
<text x="16" y="108" fill="rgb(0,0,0)" fill-opacity="1.0" font-size="10" stroke="none">
attendance_semester_fk (semester_id)
</text></a>
<use xlink:href="#fk_sym" x="4" y="115" width="8" height="8" fill-opacity="1.0"/><a xlink:href="#BB722A92-524BE3E0A117" >
<text x="16" y="122" fill="rgb(0,0,0)" fill-opacity="1.0" font-size="10" stroke="none">
attendance_student_fk (student_id)
</text></a>
</g>
<g  fill="rgb(255,255,180)" stroke="rgb(0,0,255)" fill-opacity="1.0" stroke-opacity="1.0" clip-path="url(#clipPath13_0_)" transform="translate(186,429)" >
<rect x="0" y="0" width="244" height="163" />
<text id="A0C7BC2B-3B212D83E45E" x="91" y="14" fill="rgb(0,0,255)" font-weight="bold"  fill-opacity="1.0" font-size="10" stroke="none">
student_fees
</text>
<line x1="0" y1="18" x2="243" y2="18" fill="none" stroke="rgb(0,0,255)"/>
<text x="16" y="32" fill="rgb(255,0,0)" fill-opacity="1.0" font-size="10" stroke="none">
*
</text>
<text x="2" y="32" fill="rgb(0,0,255)" fill-opacity="1.0" font-size="10" stroke="none">
PF
</text>
<text x="26" y="32" fill="rgb(0,0,0)" fill-opacity="1.0" font-size="10" stroke="none">
semester_id
</text>
<text x="115" y="32" fill="rgb(0,128,0)" fill-opacity="1.0" font-size="10" stroke="none">
INTEGER
</text>
<text x="16" y="46" fill="rgb(255,0,0)" fill-opacity="1.0" font-size="10" stroke="none">
*
</text>
<text x="2" y="46" fill="rgb(0,0,255)" fill-opacity="1.0" font-size="10" stroke="none">
PF
</text>
<text x="26" y="46" fill="rgb(0,0,0)" fill-opacity="1.0" font-size="10" stroke="none">
student_id
</text>
<text x="115" y="46" fill="rgb(0,128,0)" fill-opacity="1.0" font-size="10" stroke="none">
INTEGER
</text>
<text x="16" y="60" fill="rgb(255,0,0)" fill-opacity="1.0" font-size="10" stroke="none">
*
</text>
<text x="2" y="60" fill="rgb(0,0,0)" fill-opacity="1.0" font-size="10" stroke="none">
F
</text>
<text x="26" y="60" fill="rgb(0,0,0)" fill-opacity="1.0" font-size="10" stroke="none">
department_id
</text>
<text x="115" y="60" fill="rgb(0,128,0)" fill-opacity="1.0" font-size="10" stroke="none">
INTEGER
</text>
<text x="16" y="74" fill="rgb(255,0,0)" fill-opacity="1.0" font-size="10" stroke="none">

</text>
<text x="26" y="74" fill="rgb(0,0,0)" fill-opacity="1.0" font-size="10" stroke="none">
fee_status
</text>
<text x="115" y="74" fill="rgb(0,128,0)" fill-opacity="1.0" font-size="10" stroke="none">
VARCHAR2 (10 CHAR)
</text>
<text x="16" y="88" fill="rgb(255,0,0)" fill-opacity="1.0" font-size="10" stroke="none">

</text>
<text x="26" y="88" fill="rgb(0,0,0)" fill-opacity="1.0" font-size="10" stroke="none">
fee_amount
</text>
<text x="115" y="88" fill="rgb(0,128,0)" fill-opacity="1.0" font-size="10" stroke="none">
NUMBER
</text>
<line x1="0" y1="94" x2="243" y2="94" fill="none" stroke="rgb(0,0,255)"/>
<use xlink:href="#pk_sym" x="4" y="101" width="8" height="8" fill-opacity="1.0"/>
<text x="16" y="108" fill="rgb(0,0,0)" fill-opacity="1.0" font-size="10" stroke="none">
student_fees_pk (semester_id, student_id)
</text>
<line x1="0" y1="114" x2="243" y2="114" fill="none" stroke="rgb(0,0,255)"/>
<use xlink:href="#fk_sym" x="4" y="121" width="8" height="8" fill-opacity="1.0"/><a xlink:href="#5EBE0017-571AE27E0D25" >
<text x="16" y="128" fill="rgb(0,0,0)" fill-opacity="1.0" font-size="10" stroke="none">
student_fees_department_fk (department_id)
</text></a>
<use xlink:href="#fk_sym" x="4" y="135" width="8" height="8" fill-opacity="1.0"/><a xlink:href="#AE3B4812-17CAE741ECA1" >
<text x="16" y="142" fill="rgb(0,0,0)" fill-opacity="1.0" font-size="10" stroke="none">
student_fees_semester_fk (semester_id)
</text></a>
<use xlink:href="#fk_sym" x="4" y="149" width="8" height="8" fill-opacity="1.0"/><a xlink:href="#BB722A92-524BE3E0A117" >
<text x="16" y="156" fill="rgb(0,0,0)" fill-opacity="1.0" font-size="10" stroke="none">
student_fees_student_fk (student_id)
</text></a>
</g>
<g  fill="rgb(255,255,180)" stroke="rgb(0,0,255)" fill-opacity="1.0" stroke-opacity="1.0" clip-path="url(#clipPath14_0_)" transform="translate(916,296)" >
<rect x="0" y="0" width="240" height="87" />
<text id="F70791A7-858C609C6653" x="102" y="14" fill="rgb(0,0,255)" font-weight="bold"  fill-opacity="1.0" font-size="10" stroke="none">
teacher
</text>
<line x1="0" y1="18" x2="239" y2="18" fill="none" stroke="rgb(0,0,255)"/>
<text x="16" y="32" fill="rgb(255,0,0)" fill-opacity="1.0" font-size="10" stroke="none">
*
</text>
<text x="2" y="32" fill="rgb(0,0,255)" fill-opacity="1.0" font-size="10" stroke="none">
P
</text>
<text x="26" y="32" fill="rgb(0,0,0)" fill-opacity="1.0" font-size="10" stroke="none">
teacher_id
</text>
<text x="115" y="32" fill="rgb(0,128,0)" fill-opacity="1.0" font-size="10" stroke="none">
INTEGER
</text>
<text x="16" y="46" fill="rgb(255,0,0)" fill-opacity="1.0" font-size="10" stroke="none">
*
</text>
<text x="26" y="46" fill="rgb(0,0,0)" fill-opacity="1.0" font-size="10" stroke="none">
teacher_name
</text>
<text x="115" y="46" fill="rgb(0,128,0)" fill-opacity="1.0" font-size="10" stroke="none">
VARCHAR2 (100 CHAR)
</text>
<text x="16" y="60" fill="rgb(255,0,0)" fill-opacity="1.0" font-size="10" stroke="none">
*
</text>
<text x="26" y="60" fill="rgb(0,0,0)" fill-opacity="1.0" font-size="10" stroke="none">
email
</text>
<text x="115" y="60" fill="rgb(0,128,0)" fill-opacity="1.0" font-size="10" stroke="none">
VARCHAR2 (150 CHAR)
</text>
<line x1="0" y1="66" x2="239" y2="66" fill="none" stroke="rgb(0,0,255)"/>
<use xlink:href="#pk_sym" x="4" y="73" width="8" height="8" fill-opacity="1.0"/>
<text x="16" y="80" fill="rgb(0,0,0)" fill-opacity="1.0" font-size="10" stroke="none">
teacher_pk (teacher_id)
</text>
</g>

</svg>